<svg xmlns="http://www.w3.org/2000/svg" viewBox="0 0 133.84 202.03"><defs><style>.cls-1{fill:#85cee4;}</style></defs><g id="Camada_2" data-name="Camada 2"><g id="Camada_1-2" data-name="Camada 1"><path class="cls-1" d="M106.79,190.19a2.75,2.75,0,0,1,1.95-3c2.23-.67,5.28-2.73,5.28-8.95V100.82a2.75,2.75,0,0,1,2.75-2.74h13a2.74,2.74,0,0,1,2.74,2.74v77.3c0,19.08-15.1,23.06-21.39,23.89a2.75,2.75,0,0,1-3.06-2.36Z"/><path class="cls-1" d="M101.71,81.59a4,4,0,0,1-4,4H83.84A26,26,0,0,1,58.05,62.7H97.69a4,4,0,0,1,4,4Zm0-31.35a4,4,0,0,1-4,4H54.82A26,26,0,0,1,29,31.35H97.69a4,4,0,0,1,4,4ZM25.79,22.92A26,26,0,0,1,0,0H92.39a9.33,9.33,0,0,1,9.32,9.33V18.9a4,4,0,0,1-4,4Z"/><circle class="cls-1" cx="122.99" cy="74.77" r="10.84"/></g></g></svg>