<svg xmlns="http://www.w3.org/2000/svg" viewBox="0 0 424.66 202.03"><defs><style>.cls-1{fill:#376397;}.cls-2{fill:#85cee4;}</style></defs><g id="Camada_2" data-name="Camada 2"><g id="Camada_1-2" data-name="Camada 1"><path class="cls-1" d="M60.67,124.51v33.7A2.75,2.75,0,0,1,57.93,161H45.44a2.11,2.11,0,0,1-2.1-2.11v-.36a2,2,0,0,0-3.26-1.57c-3.76,3.27-9.23,5-16.22,5C8.91,161.91,0,153.6,0,142.55c0-11.28,8-19.11,27.43-19.11h9.09a4.6,4.6,0,0,0,3.94-7c-2.18-3.63-6.48-5.63-13-5.63a32,32,0,0,0-16,4.25A2.73,2.73,0,0,1,7.61,114l-4.1-8a2.77,2.77,0,0,1,1.08-3.65c6.87-4.07,16.15-6.28,25.33-6.28C49.39,96.13,60.67,105.15,60.67,124.51ZM42.15,140.77v-6.53H29.44c-8.66,0-11.39,3.21-11.39,7.48,0,4.63,3.91,7.72,10.44,7.72C34.67,149.44,40,146.59,42.15,140.77Z"/><path class="cls-1" d="M110.1,99v11.3a2.75,2.75,0,0,1-2.89,2.74c-.41,0-.83,0-1.27,0-10.21,0-17,5.58-17,17.81v27.41A2.75,2.75,0,0,1,86.22,161h-13a2.75,2.75,0,0,1-2.74-2.75V99.82a2.74,2.74,0,0,1,2.74-2.74H86a2.1,2.1,0,0,1,2.1,2.1h0a2.6,2.6,0,0,0,4.12,2.13c3.86-2.94,8.88-4.66,14.86-5.08A2.78,2.78,0,0,1,110.1,99Z"/><path class="cls-1" d="M113.48,129c0-19.24,14.84-32.89,35.62-32.89,12.27,0,22.17,4.87,27.31,13.71a2.77,2.77,0,0,1-1.08,3.83l-9.77,5.25a2.72,2.72,0,0,1-3.5-.81A15.54,15.54,0,0,0,149,111.33c-9.38,0-16.74,6.53-16.74,17.69s7.36,17.69,16.74,17.69A15.36,15.36,0,0,0,162.06,140a2.72,2.72,0,0,1,3.53-.81l9.74,5.31a2.77,2.77,0,0,1,1,3.85c-5.15,8.64-15,13.6-27.28,13.6C128.32,161.91,113.48,148.25,113.48,129Z"/><path class="cls-1" d="M242.59,124.51v33.7a2.75,2.75,0,0,1-2.74,2.75H227.36a2.11,2.11,0,0,1-2.1-2.11v-.36a2,2,0,0,0-3.26-1.57c-3.76,3.27-9.23,5-16.21,5-15,0-23.87-8.31-23.87-19.36,0-11.28,8-19.11,27.43-19.11h9.09a4.6,4.6,0,0,0,3.94-7c-2.18-3.63-6.48-5.63-13-5.63a32,32,0,0,0-16,4.25,2.73,2.73,0,0,1-3.86-1.07l-4.1-8a2.77,2.77,0,0,1,1.08-3.65c6.87-4.07,16.15-6.28,25.33-6.28C231.31,96.13,242.59,105.15,242.59,124.51Zm-18.52,16.26v-6.53h-12.7c-8.67,0-11.4,3.21-11.4,7.48,0,4.63,3.92,7.72,10.45,7.72C216.59,149.44,221.93,146.59,224.07,140.77Z"/><path class="cls-1" d="M317.66,124.39v33.82a2.75,2.75,0,0,1-2.74,2.75h-13a2.75,2.75,0,0,1-2.75-2.75v-31c0-10.33-4.75-15.08-12.94-15.08-8.9,0-15.32,5.46-15.32,17.21v28.84a2.74,2.74,0,0,1-2.74,2.75h-13a2.75,2.75,0,0,1-2.75-2.75V99.82a2.75,2.75,0,0,1,2.75-2.74h13.17a1.77,1.77,0,0,1,1.77,1.77h0a2.63,2.63,0,0,0,4.17,2.1,29.85,29.85,0,0,1,17-4.82C306.27,96.13,317.66,104.92,317.66,124.39Z"/><path class="cls-1" d="M354.49,129c0-19.24,14.84-32.89,35.14-32.89s35,13.65,35,32.89-14.72,32.89-35,32.89S354.49,148.25,354.49,129Zm51.41,0c0-11-7-17.69-16.27-17.69S373.25,118,373.25,129s7.12,17.69,16.38,17.69S405.9,140.06,405.9,129Z"/><path class="cls-2" d="M321,190.19a2.73,2.73,0,0,1,1.94-3c2.24-.67,5.29-2.73,5.29-8.95V100.82A2.74,2.74,0,0,1,331,98.08h13a2.75,2.75,0,0,1,2.75,2.74v77.3c0,19.08-15.1,23.06-21.4,23.89a2.74,2.74,0,0,1-3.05-2.36Z"/><path class="cls-2" d="M316,81.59a4,4,0,0,1-4,4H298.09a26,26,0,0,1-25.8-22.92h39.64a4,4,0,0,1,4,4Zm0-31.35a4,4,0,0,1-4,4H269.06a26,26,0,0,1-25.79-22.92h68.66a4,4,0,0,1,4,4ZM240,22.92A26,26,0,0,1,214.24,0h92.39A9.33,9.33,0,0,1,316,9.33V18.9a4,4,0,0,1-4,4Z"/><circle class="cls-2" cx="337.23" cy="74.77" r="10.84"/></g></g></svg>