<svg xmlns="http://www.w3.org/2000/svg" width="216.613" height="127.967" viewBox="0 0 216.613 127.967">
  <g id="Grupo_3" data-name="Grupo 3" transform="translate(-241.845 -171.887)">
    <g id="Grupo_1" data-name="Grupo 1" transform="translate(241.845 171.887)">
      <path id="Caminho_1" data-name="Caminho 1" d="M305.609,299.753h26.975l-58.495-58.495-5.276-5.276,5.04-5.047.305-.305,40.164-40.164,11.288-11.282,3.006-3.013,4.284-4.284H305.94l-26.327,26.327-5.352,5.352-13.583,13.583-.305.305-5.04,5.047-8.447,8.441-5.04,5.047Z" transform="translate(-241.845 -171.887)" fill="#2a7479"/>
      <path id="Caminho_2" data-name="Caminho 2" d="M350.459,313.271V286.105l-38.848-38.848L298.028,260.84Z" transform="translate(-260.431 -196.821)" fill="#2a7479"/>
      <path id="Caminho_3" data-name="Caminho 3" d="M359.82,266.05v-27.16l-19.92-19.92-13.577,13.583Z" transform="translate(-269.792 -187.464)" fill="#2a7479"/>
      <path id="Caminho_4" data-name="Caminho 4" d="M369.177,218.339V189.2l-14.568,14.568Z" transform="translate(-279.15 -177.616)" fill="#2a7479"/>
    </g>
    <g id="Grupo_2" data-name="Grupo 2" transform="translate(345.864 171.887)">
      <path id="Caminho_5" data-name="Caminho 5" d="M425.789,199.707H409.35l-3.136,7.586h-8.4L413.6,171.887h8.092l15.833,35.407h-8.6Zm-2.58-6.222-5.614-13.556-5.614,13.556Z" transform="translate(-397.463 -171.887)" fill="#b5baba"/>
      <path id="Caminho_6" data-name="Caminho 6" d="M485.23,207.294l-6.828-9.863h-7.537v9.863h-8.194V171.887H478a19.683,19.683,0,0,1,8.169,1.568,12.143,12.143,0,0,1,5.337,4.451,12.275,12.275,0,0,1,1.872,6.83,11.536,11.536,0,0,1-7.284,11.179l7.941,11.38Zm-2.074-27.136a8.6,8.6,0,0,0-5.614-1.593h-6.677v12.342h6.677a8.505,8.505,0,0,0,5.614-1.619,6.38,6.38,0,0,0,0-9.13Z" transform="translate(-418.918 -171.887)" fill="#b5baba"/>
      <path id="Caminho_7" data-name="Caminho 7" d="M410.828,273.954a17.561,17.561,0,0,1-6.879-6.525,19.021,19.021,0,0,1,0-18.867,17.557,17.557,0,0,1,6.879-6.525,21.95,21.95,0,0,1,18.159-.733,16.673,16.673,0,0,1,6.247,4.653l-5.26,4.856a11.314,11.314,0,0,0-8.9-4.148,11.829,11.829,0,0,0-5.868,1.441,10.256,10.256,0,0,0-4.021,4.022,12.663,12.663,0,0,0,0,11.735,10.251,10.251,0,0,0,4.021,4.021,11.822,11.822,0,0,0,5.868,1.441,11.255,11.255,0,0,0,8.9-4.2l5.26,4.856a16.4,16.4,0,0,1-6.271,4.7,20.821,20.821,0,0,1-8.347,1.619A20.335,20.335,0,0,1,410.828,273.954Z" transform="translate(-398.663 -194.316)" fill="#b5baba"/>
      <path id="Caminho_8" data-name="Caminho 8" d="M480.136,268.412H463.7L460.561,276h-8.4l15.782-35.408h8.093L491.871,276h-8.6Zm-2.579-6.222-5.615-13.556-5.614,13.556Z" transform="translate(-415.442 -194.616)" fill="#b5baba"/>
      <path id="Caminho_9" data-name="Caminho 9" d="M549.492,240.592V276h-6.728l-17.653-21.5V276h-8.092V240.592H523.8l17.6,21.5v-21.5Z" transform="translate(-436.898 -194.616)" fill="#b5baba"/>
      <path id="Caminho_10" data-name="Caminho 10" d="M402.22,343.972a12.6,12.6,0,0,1-4.932-3.819l4.552-5.463q2.883,3.9,6.575,3.9,5.008,0,5.008-5.867V315.874H400.98V309.3h20.587v22.963q0,6.526-3.237,9.787t-9.51,3.263A16.052,16.052,0,0,1,402.22,343.972Z" transform="translate(-397.288 -217.346)" fill="#b5baba"/>
      <path id="Caminho_11" data-name="Caminho 11" d="M451.771,342.636a17.642,17.642,0,0,1-6.93-6.551,18.83,18.83,0,0,1,0-18.765,17.645,17.645,0,0,1,6.93-6.551,21.916,21.916,0,0,1,19.853,0,18.06,18.06,0,0,1,0,31.867,21.916,21.916,0,0,1-19.853,0Zm15.6-6.045a10.336,10.336,0,0,0,3.971-4.02,12.664,12.664,0,0,0,0-11.735,10.341,10.341,0,0,0-3.971-4.021,11.849,11.849,0,0,0-11.33,0,10.339,10.339,0,0,0-3.97,4.021,12.664,12.664,0,0,0,0,11.735,10.334,10.334,0,0,0,3.97,4.02,11.849,11.849,0,0,0,11.33,0Z" transform="translate(-412.191 -217.046)" fill="#b5baba"/>
    </g>
  </g>
</svg>
